<?xml version="1.0" encoding="UTF-8" standalone="no"?>
<!-- Created with Inkscape (http://www.inkscape.org/) -->

<svg
   xmlns:dc="http://purl.org/dc/elements/1.1/"
   xmlns:cc="http://creativecommons.org/ns#"
   xmlns:rdf="http://www.w3.org/1999/02/22-rdf-syntax-ns#"
   xmlns:svg="http://www.w3.org/2000/svg"
   xmlns="http://www.w3.org/2000/svg"
   xmlns:sodipodi="http://sodipodi.sourceforge.net/DTD/sodipodi-0.dtd"
   xmlns:inkscape="http://www.inkscape.org/namespaces/inkscape"
   width="200"
   height="428.56"
   id="svg4260"
   version="1.1"
   inkscape:version="0.48.5 r10040"
   sodipodi:docname="woo.svg"
   inkscape:export-filename="/home/misha/Documents/favicon.png"
   inkscape:export-xdpi="22.947258"
   inkscape:export-ydpi="22.947258">
  <defs
     id="defs4262">
    <marker
       inkscape:stockid="Arrow1Lstart"
       orient="auto"
       refY="0"
       refX="0"
       id="Arrow1Lstart"
       style="overflow:visible">
      <path
         id="path4029"
         d="M 0,0 5,-5 -12.5,0 5,5 0,0 z"
         style="fill-rule:evenodd;stroke:#000000;stroke-width:1pt"
         transform="matrix(0.8,0,0,0.8,10,0)"
         inkscape:connector-curvature="0" />
    </marker>
  </defs>
  <sodipodi:namedview
     id="base"
     pagecolor="#ffffff"
     bordercolor="#666666"
     borderopacity="1.0"
     inkscape:pageopacity="0.0"
     inkscape:pageshadow="2"
     inkscape:zoom="0.35"
     inkscape:cx="-593.23531"
     inkscape:cy="-130.01749"
     inkscape:document-units="px"
     inkscape:current-layer="layer1"
     showgrid="true"
     inkscape:window-width="1317"
     inkscape:window-height="744"
     inkscape:window-x="49"
     inkscape:window-y="24"
     inkscape:window-maximized="1">
    <inkscape:grid
       type="xygrid"
       id="grid3253"
       empspacing="5"
       visible="true"
       enabled="true"
       snapvisiblegridlinesonly="true" />
  </sodipodi:namedview>
  <metadata
     id="metadata4265">
    <rdf:RDF>
      <cc:Work
         rdf:about="">
        <dc:format>image/svg+xml</dc:format>
        <dc:type
           rdf:resource="http://purl.org/dc/dcmitype/StillImage" />
        <dc:title></dc:title>
      </cc:Work>
    </rdf:RDF>
  </metadata>
  <g
     inkscape:label="Layer 1"
     inkscape:groupmode="layer"
     id="layer1"
     transform="translate(0,-2728.5266)">
    <path
       sodipodi:type="arc"
       style="fill:none;stroke:#766e5f;stroke-width:28.06243134;stroke-linecap:round;stroke-linejoin:round;stroke-miterlimit:4;stroke-opacity:1;stroke-dasharray:none;marker-start:none;marker-mid:none"
       id="path3255"
       sodipodi:cx="100"
       sodipodi:cy="202.06"
       sodipodi:rx="100"
       sodipodi:ry="87.5"
       d="m 200,202.06 a 100,87.5 0 1 1 -200,0 100,87.5 0 1 1 200,0 z"
       transform="matrix(0.86956521,0,0,0.99378871,13.043479,2856.2817)" />
    <path
       style="fill:#aa9f89;fill-opacity:1;stroke:#000000;stroke-width:4.03295612;stroke-linecap:round;stroke-linejoin:miter;stroke-miterlimit:0;stroke-opacity:1;stroke-dasharray:none"
       d="m 102.89767,2966.4901 c -49.5757,-0.1783 -91.872496,-33.0796 -99.9010968,-87.919 -9.1564002,-62.5486 48.8579968,-148.028 48.8579968,-148.028 0,0 28.977801,19.1696 48.3663,19.2385 19.3879,0.065 48.4239,-18.8913 48.4239,-18.8913 0,0 59.1073,88.5284 47.9329,148.3735 -10.3004,55.1669 -44.1044,87.4035 -93.68,87.2263 z"
       id="path3064"
       inkscape:connector-curvature="0"
       sodipodi:nodetypes="sscscss"
       inkscape:export-filename="/home/misha/Documents/favicon.png"
       inkscape:export-xdpi="1.6548408"
       inkscape:export-ydpi="1.6548408" />
    <path
       sodipodi:type="arc"
       style="fill:#000000;fill-opacity:1;fill-rule:evenodd;stroke:none"
       id="path3066"
       sodipodi:cx="255"
       sodipodi:cy="-1326.9236"
       sodipodi:rx="105"
       sodipodi:ry="102.14286"
       d="m 360,-1326.9236 a 105,102.14286 0 1 1 -210,0 105,102.14286 0 1 1 210,0 z"
       transform="matrix(0.43103309,0,0,0.43103226,-52.670427,3378.1995)"
       inkscape:export-filename="/home/misha/Documents/favicon.png"
       inkscape:export-xdpi="1.6548408"
       inkscape:export-ydpi="1.6548408" />
    <path
       d="m 360,-1326.9236 a 105,102.14286 0 1 1 -210,0 105,102.14286 0 1 1 210,0 z"
       sodipodi:ry="102.14286"
       sodipodi:rx="105"
       sodipodi:cy="-1326.9236"
       sodipodi:cx="255"
       id="path3068"
       style="fill:#000000;fill-opacity:1;fill-rule:evenodd;stroke:none"
       sodipodi:type="arc"
       transform="matrix(0.42161092,0,0,0.42161011,37.61037,3363.6985)"
       inkscape:export-filename="/home/misha/Documents/favicon.png"
       inkscape:export-xdpi="1.6548408"
       inkscape:export-ydpi="1.6548408" />
    <path
       transform="matrix(0.40344149,0,0,0.40344071,-45.512327,3341.8181)"
       d="m 360,-1326.9236 a 105,102.14286 0 1 1 -210,0 105,102.14286 0 1 1 210,0 z"
       sodipodi:ry="102.14286"
       sodipodi:rx="105"
       sodipodi:cy="-1326.9236"
       sodipodi:cx="255"
       id="path3070"
       style="fill:#ffffff;fill-opacity:1;fill-rule:evenodd;stroke:none"
       sodipodi:type="arc"
       inkscape:export-filename="/home/misha/Documents/favicon.png"
       inkscape:export-xdpi="1.6548408"
       inkscape:export-ydpi="1.6548408" />
    <path
       transform="matrix(0.39462246,0,0,0.3946217,44.76187,3328.1417)"
       sodipodi:type="arc"
       style="fill:#ffffff;fill-opacity:1;fill-rule:evenodd;stroke:none"
       id="path3072"
       sodipodi:cx="255"
       sodipodi:cy="-1326.9236"
       sodipodi:rx="105"
       sodipodi:ry="102.14286"
       d="m 360,-1326.9236 a 105,102.14286 0 1 1 -210,0 105,102.14286 0 1 1 210,0 z"
       inkscape:export-filename="/home/misha/Documents/favicon.png"
       inkscape:export-xdpi="1.6548408"
       inkscape:export-ydpi="1.6548408" />
    <path
       style="fill:#bebebe;fill-opacity:1;fill-rule:evenodd;stroke:none"
       d="m 185.58987,2794.6589 c 0.2319,1.7172 0.3508,3.4783 0.3508,5.2567 0,22.1365 -18.5953,40.079 -41.5274,40.079 -19.3493,0 -35.4498,-12.8208 -40.0577,-30.1099 2.6631,19.6567 20.0151,35.0312 41.1041,35.0312 22.9322,0 41.4353,-18.1007 41.4353,-40.2373 0,-3.4586 -0.4519,-6.8179 -1.308,-10.0197 z"
       id="path3074"
       inkscape:connector-curvature="0"
       sodipodi:nodetypes="csscssc"
       inkscape:export-filename="/home/misha/Documents/favicon.png"
       inkscape:export-xdpi="1.6548408"
       inkscape:export-ydpi="1.6548408" />
    <path
       sodipodi:nodetypes="csscssc"
       inkscape:connector-curvature="0"
       id="path3076"
       d="m 99.619771,2803.5341 c -0.059,1.7712 -0.44,3.5668 -0.7349,5.3606 -3.7108,22.3245 -25.6613,37.3025 -48.789001,33.458 -19.5134,-3.244 -33.3295,-18.8736 -35.0781,-37.0825 -0.6095,20.2697 14.0408,38.6854 35.3094,42.2208 23.127101,3.8451 45.011101,-11.3077 48.722401,-33.6327 0.5767,-3.4884 0.8936,-6.9518 0.5708,-10.3242 z"
       style="fill:#bebebe;fill-opacity:1;fill-rule:evenodd;stroke:none"
       inkscape:export-filename="/home/misha/Documents/favicon.png"
       inkscape:export-xdpi="1.6548408"
       inkscape:export-ydpi="1.6548408" />
    <path
       d="m 360,-1326.9236 a 105,102.14286 0 1 1 -210,0 105,102.14286 0 1 1 210,0 z"
       sodipodi:ry="102.14286"
       sodipodi:rx="105"
       sodipodi:cy="-1326.9236"
       sodipodi:cx="255"
       id="path3078"
       style="fill:#272727;fill-opacity:1;fill-rule:evenodd;stroke:none"
       sodipodi:type="arc"
       transform="matrix(0.10331025,0,0,0.10331005,117.46767,2944.7822)"
       inkscape:export-filename="/home/misha/Documents/favicon.png"
       inkscape:export-xdpi="1.6548408"
       inkscape:export-ydpi="1.6548408" />
    <g
       transform="matrix(0.40329592,0,0,0.40329514,-12.504127,3103.1319)"
       id="g3080"
       inkscape:export-filename="/home/misha/Documents/favicon.png"
       inkscape:export-xdpi="1.6548408"
       inkscape:export-ydpi="1.6548408">
      <path
         inkscape:export-ydpi="75.376884"
         inkscape:export-xdpi="75.376884"
         inkscape:export-filename="D:\work\макеты логотипов\139.png"
         transform="matrix(0.26188968,0,0,0.26188968,101.70533,-384.23468)"
         d="m 360,-1326.9236 c 0,56.412 -47.0101,102.1429 -105,102.1429 -57.9899,0 -105,-45.7309 -105,-102.1429 0,-56.4119 47.0101,-102.1428 105,-102.1428 57.9899,0 105,45.7309 105,102.1428 z"
         sodipodi:ry="102.14286"
         sodipodi:rx="105"
         sodipodi:cy="-1326.9236"
         sodipodi:cx="255"
         id="path3082"
         style="fill:#272727;fill-opacity:1;fill-rule:evenodd;stroke:none"
         sodipodi:type="arc" />
      <path
         inkscape:export-ydpi="75.376884"
         inkscape:export-xdpi="75.376884"
         inkscape:export-filename="D:\work\макеты логотипов\139.png"
         sodipodi:type="arc"
         style="fill:#ffffff;fill-opacity:1;fill-rule:evenodd;stroke:none"
         id="path3084"
         sodipodi:cx="255"
         sodipodi:cy="-1326.9236"
         sodipodi:rx="105"
         sodipodi:ry="102.14286"
         d="m 360,-1326.9236 c 0,56.412 -47.0101,102.1429 -105,102.1429 -57.9899,0 -105,-45.7309 -105,-102.1429 0,-56.4119 47.0101,-102.1428 105,-102.1428 57.9899,0 105,45.7309 105,102.1428 z"
         transform="matrix(0.13443423,0,0,0.13443423,123.55586,-567.99408)" />
    </g>
    <path
       transform="matrix(0.05303166,0,0,0.05303155,124.96637,2872.7449)"
       sodipodi:type="arc"
       style="fill:#ffffff;fill-opacity:1;fill-rule:evenodd;stroke:none"
       id="path3086"
       sodipodi:cx="255"
       sodipodi:cy="-1326.9236"
       sodipodi:rx="105"
       sodipodi:ry="102.14286"
       d="m 360,-1326.9236 a 105,102.14286 0 1 1 -210,0 105,102.14286 0 1 1 210,0 z"
       inkscape:export-filename="/home/misha/Documents/favicon.png"
       inkscape:export-xdpi="1.6548408"
       inkscape:export-ydpi="1.6548408" />
    <path
       style="fill:#ffdd55;stroke:#000000;stroke-width:2.57045507;stroke-linecap:butt;stroke-linejoin:miter;stroke-miterlimit:4;stroke-opacity:1;stroke-dasharray:none"
       d="m 103.23357,2840.7978 c 0,0 -10.890799,-14.4154 -10.281999,-20.5639 0.4757,-4.8232 5.435,-10.2814 10.281999,-10.2814 4.847,0 9.8045,5.4582 10.2814,10.2814 0.6094,6.1485 -10.2814,20.5639 -10.2814,20.5639 z"
       id="path3088"
       inkscape:connector-curvature="0"
       sodipodi:nodetypes="csssc"
       inkscape:export-filename="/home/misha/Documents/favicon.png"
       inkscape:export-xdpi="1.6548408"
       inkscape:export-ydpi="1.6548408" />
    <path
       style="fill:#b7c8c4;stroke:#000000;stroke-width:4.03295612;stroke-linecap:round;stroke-linejoin:miter;stroke-miterlimit:4;stroke-opacity:1;stroke-dasharray:none"
       d="m 101.59727,2790.8043 c 0,0 -2.641699,-26.3355 -27.878999,-35.7375 -18.916401,-7.0469 -60.234001,-6.265 -60.234001,-6.265 l 9.8129,12.0907 c 0,0 33.4193,0.5232 49.281901,5.1258 22.406,6.4975 29.018199,24.786 29.018199,24.786 z"
       id="path3090"
       inkscape:connector-curvature="0"
       sodipodi:nodetypes="csccsc"
       inkscape:export-filename="/home/misha/Documents/favicon.png"
       inkscape:export-xdpi="1.6548408"
       inkscape:export-ydpi="1.6548408" />
    <path
       sodipodi:nodetypes="csccsc"
       inkscape:connector-curvature="0"
       id="path3092"
       d="m 101.78637,2790.988 c 0,0 3.1513,-27.3789 28.3886,-36.7815 18.9164,-7.0469 60.2334,-6.2645 60.2334,-6.2645 l -9.8129,12.0907 c 0,0 -33.4193,0.5232 -49.2813,5.1258 -22.406,6.4969 -29.5278,25.8295 -29.5278,25.8295 z"
       style="fill:#b7c8c4;stroke:#000000;stroke-width:4.03295612;stroke-linecap:round;stroke-linejoin:miter;stroke-miterlimit:4;stroke-opacity:1;stroke-dasharray:none"
       inkscape:export-filename="/home/misha/Documents/favicon.png"
       inkscape:export-xdpi="1.6548408"
       inkscape:export-ydpi="1.6548408" />
    <path
       style="fill:#000000;fill-opacity:1;fill-rule:evenodd;stroke:none"
       d="m 74.061371,2863.2251 c 4.2227,5.2988 11.0793,8.4376 18.4913,7.7533 6.4832,-0.5982 12.016299,-3.9932 15.429199,-8.8384 -4.0384,3.634 -9.292599,6.0623 -15.188999,6.6069 -7.0428,0.6499 -13.6788,-1.5066 -18.7315,-5.5218 z"
       id="path3094"
       inkscape:connector-curvature="0"
       inkscape:export-filename="/home/misha/Documents/favicon.png"
       inkscape:export-xdpi="1.6548408"
       inkscape:export-ydpi="1.6548408" />
    <path
       inkscape:connector-curvature="0"
       id="path3096"
       d="m 98.953271,2888.0349 c 4.222599,5.2995 11.078699,8.4376 18.491199,7.7539 6.4833,-0.5988 12.0164,-3.9938 15.4292,-8.8384 -4.0383,3.6335 -9.2926,6.0617 -15.189,6.6063 -7.0427,0.6499 -13.6793,-1.506 -18.731399,-5.5218 z"
       style="fill:#000000;fill-opacity:1;fill-rule:evenodd;stroke:none"
       inkscape:export-filename="/home/misha/Documents/favicon.png"
       inkscape:export-xdpi="1.6548408"
       inkscape:export-ydpi="1.6548408" />
    <path
       style="fill:#000000;fill-opacity:1;fill-rule:evenodd;stroke:none"
       d="m 76.978371,2909.1703 c 4.2232,5.2987 11.0793,8.4375 18.4918,7.7531 6.483299,-0.5981 12.015799,-3.9932 15.428699,-8.8382 -4.0384,3.6339 -9.2926,6.0621 -15.188999,6.6062 -7.0428,0.6504 -13.6788,-1.5061 -18.7315,-5.5211 z"
       id="path3098"
       inkscape:connector-curvature="0"
       inkscape:export-filename="/home/misha/Documents/favicon.png"
       inkscape:export-xdpi="1.6548408"
       inkscape:export-ydpi="1.6548408" />
    <path
       inkscape:connector-curvature="0"
       id="path3100"
       d="m 95.327471,2934.3546 c 4.2227,5.2994 11.079399,8.4376 18.491299,7.7538 6.4833,-0.5987 12.0158,-3.9943 15.4292,-8.8382 -4.0383,3.6333 -9.2926,6.0615 -15.189,6.6056 -7.0433,0.6504 -13.6788,-1.5061 -18.731499,-5.5212 z"
       style="fill:#000000;fill-opacity:1;fill-rule:evenodd;stroke:none"
       inkscape:export-filename="/home/misha/Documents/favicon.png"
       inkscape:export-xdpi="1.6548408"
       inkscape:export-ydpi="1.6548408" />
    <path
       sodipodi:nodetypes="ssscs"
       inkscape:connector-curvature="0"
       id="path3102"
       d="m 106.10837,2970.1111 c 0,-3.0074 3.373,-6.381 6.381,-6.381 3.0073,0 6.3803,3.3736 6.3803,6.381 0,3.0073 -6.3803,6.3804 -6.3803,6.3804 0,0 -6.381,-3.3731 -6.381,-6.3804 z"
       style="fill:#aa9f89;fill-opacity:1;stroke:#000000;stroke-width:3.19024873;stroke-linecap:round;stroke-linejoin:miter;stroke-miterlimit:4;stroke-opacity:1;stroke-dasharray:none"
       inkscape:export-filename="/home/misha/Documents/favicon.png"
       inkscape:export-xdpi="1.6548408"
       inkscape:export-ydpi="1.6548408" />
    <path
       style="fill:#aa9f89;fill-opacity:1;stroke:#000000;stroke-width:3.19024873;stroke-linecap:round;stroke-linejoin:miter;stroke-miterlimit:4;stroke-opacity:1;stroke-dasharray:none"
       d="m 119.75207,2968.8732 c 0,-3.008 3.373,-6.3804 6.381,-6.3804 3.0073,0 6.3797,3.3724 6.3797,6.3804 0,3.0079 -6.3797,6.381 -6.3797,6.381 0,0 -6.381,-3.3731 -6.381,-6.381 z"
       id="path3104"
       inkscape:connector-curvature="0"
       sodipodi:nodetypes="ssscs"
       inkscape:export-filename="/home/misha/Documents/favicon.png"
       inkscape:export-xdpi="1.6548408"
       inkscape:export-ydpi="1.6548408" />
    <path
       inkscape:export-ydpi="1.6548408"
       inkscape:export-xdpi="1.6548408"
       inkscape:export-filename="/home/misha/Documents/favicon.png"
       sodipodi:nodetypes="csccsc"
       inkscape:connector-curvature="0"
       id="path3106"
       d="m 101.59727,2793.6559 c 0,0 -2.641699,-29.1871 -27.878999,-38.5891 -18.916401,-7.0469 -60.234001,-6.265 -60.234001,-6.265 l 9.8129,12.0907 c 0,0 33.4193,0.5232 49.281901,5.1258 22.406,6.4975 29.018199,27.6376 29.018199,27.6376 z"
       style="fill:#c7c7c7;fill-opacity:1;stroke:#000000;stroke-width:4.03295612;stroke-linecap:round;stroke-linejoin:miter;stroke-miterlimit:4;stroke-opacity:1;stroke-dasharray:none" />
    <path
       inkscape:export-ydpi="1.6548408"
       inkscape:export-xdpi="1.6548408"
       inkscape:export-filename="/home/misha/Documents/favicon.png"
       style="fill:#c7c7c7;fill-opacity:1;stroke:#000000;stroke-width:4.03295612;stroke-linecap:round;stroke-linejoin:miter;stroke-miterlimit:4;stroke-opacity:1;stroke-dasharray:none"
       d="m 101.78637,2792.1647 c 0,0 3.1513,-28.5556 28.3886,-37.9582 18.9164,-7.0469 60.2334,-6.2645 60.2334,-6.2645 l -9.8129,12.0907 c 0,0 -33.4193,0.5232 -49.2813,5.1258 -22.406,6.4969 -29.5278,27.0062 -29.5278,27.0062 z"
       id="path3108"
       inkscape:connector-curvature="0"
       sodipodi:nodetypes="csccsc" />
    <path
       style="fill:#c7c7c7;fill-opacity:1;stroke:#000000;stroke-width:4.03295612;stroke-linecap:round;stroke-linejoin:miter;stroke-miterlimit:4;stroke-opacity:1;stroke-dasharray:none"
       d="m 101.89817,2782.8941 c 0,0 -2.641699,-26.3361 -27.878999,-35.7381 -18.915801,-7.0468 -60.233401,-6.2643 -60.233401,-6.2643 l 9.8129,12.0905 c 0,0 33.4192,0.5292 49.281901,5.1259 22.4053,6.4969 29.017599,24.786 29.017599,24.786 z"
       id="path3110"
       inkscape:connector-curvature="0"
       sodipodi:nodetypes="csccsc"
       inkscape:export-filename="/home/misha/Documents/favicon.png"
       inkscape:export-xdpi="1.6548408"
       inkscape:export-ydpi="1.6548408" />
    <path
       sodipodi:nodetypes="csccsc"
       inkscape:connector-curvature="0"
       id="path3112"
       d="m 101.88867,2781.0783 c 0,0 3.1506,-27.3796 28.3879,-36.7815 18.9158,-7.0475 60.2334,-6.2651 60.2334,-6.2651 l -9.8122,12.0906 c 0,0 -33.4193,0.5292 -49.282,5.1259 -22.4059,6.4969 -29.5271,25.8301 -29.5271,25.8301 z"
       style="fill:#c7c7c7;fill-opacity:1;stroke:#000000;stroke-width:4.03295612;stroke-linecap:round;stroke-linejoin:miter;stroke-miterlimit:4;stroke-opacity:1;stroke-dasharray:none"
       inkscape:export-filename="/home/misha/Documents/favicon.png"
       inkscape:export-xdpi="1.6548408"
       inkscape:export-ydpi="1.6548408" />
    <path
       style="fill:#000000;fill-opacity:1;stroke:none"
       d="m 155.94087,2952.7685 c 0,0 -5.8215,-4.3784 -12.5307,-20.0239 -9.6262,-22.4494 -2.0085,-64.5072 -1.5982,-50.3587 0.6166,21.2744 2.4508,36.0067 8.4852,48.2883 3.1922,6.4969 10.9169,18.4841 10.9169,18.4841 z"
       id="path3114"
       inkscape:connector-curvature="0"
       sodipodi:nodetypes="cssscc"
       inkscape:export-filename="/home/misha/Documents/favicon.png"
       inkscape:export-xdpi="1.6548408"
       inkscape:export-ydpi="1.6548408" />
    <path
       sodipodi:nodetypes="cssscc"
       inkscape:connector-curvature="0"
       id="path3116"
       d="m 49.06307,2952.7685 c 0,0 5.8221,-4.3784 12.5307,-20.0239 9.626101,-22.4494 2.0084,-64.5072 1.5982,-50.3587 -0.6166,21.2744 -2.4509,36.0067 -8.4846,48.2883 -3.1929,6.4969 -10.917,18.4841 -10.917,18.4841 z"
       style="fill:#000000;fill-opacity:1;stroke:none"
       inkscape:export-filename="/home/misha/Documents/favicon.png"
       inkscape:export-xdpi="1.6548408"
       inkscape:export-ydpi="1.6548408" />
    <path
       style="fill:#000000;fill-opacity:1;stroke:none"
       d="m 39.02247,2943.0895 c 0,0 3.6418,-2.7387 7.8377,-12.5253 6.0213,-14.0415 1.2563,-40.349 1.0001,-31.4993 -0.3865,13.3076 -1.5328,22.5224 -5.3072,30.2044 -1.9972,4.0639 -6.8287,11.562 -6.8287,11.562 z"
       id="path3118"
       inkscape:connector-curvature="0"
       sodipodi:nodetypes="cssscc"
       inkscape:export-filename="/home/misha/Documents/favicon.png"
       inkscape:export-xdpi="1.6548408"
       inkscape:export-ydpi="1.6548408" />
    <path
       sodipodi:nodetypes="cssscc"
       inkscape:connector-curvature="0"
       id="path3120"
       d="m 165.56577,2943.0895 c 0,0 -3.6417,-2.7387 -7.8382,-12.5253 -6.0213,-14.0415 -1.2564,-40.349 -0.9995,-31.4993 0.3865,13.3076 1.5328,22.5224 5.3072,30.2044 1.9965,4.0639 6.8281,11.562 6.8281,11.562 z"
       style="fill:#000000;fill-opacity:1;stroke:none"
       inkscape:export-filename="/home/misha/Documents/favicon.png"
       inkscape:export-xdpi="1.6548408"
       inkscape:export-ydpi="1.6548408" />
    <path
       sodipodi:nodetypes="cssscc"
       inkscape:connector-curvature="0"
       id="path3122"
       d="m 28.08527,2933.6791 c 0,0 1.9556,-1.4709 4.2084,-6.7263 3.2339,-7.5411 0.6749,-21.6687 0.5351,-16.9162 -0.2081,7.1466 -0.8235,12.0947 -2.8504,16.2205 -1.0726,2.1827 -3.6667,6.2092 -3.6667,6.2092 z"
       style="fill:#000000;fill-opacity:1;stroke:none"
       inkscape:export-filename="/home/misha/Documents/favicon.png"
       inkscape:export-xdpi="1.6548408"
       inkscape:export-ydpi="1.6548408" />
    <path
       style="fill:#000000;fill-opacity:1;stroke:none"
       d="m 175.30727,2931.1124 c 0,0 -1.9555,-1.4709 -4.2089,-6.7265 -3.2339,-7.5404 -0.6749,-21.6686 -0.5352,-16.9155 0.2081,7.1461 0.8235,12.0947 2.8504,16.2199 1.0721,2.1828 3.6674,6.2092 3.6674,6.2092 z"
       id="path3124"
       inkscape:connector-curvature="0"
       sodipodi:nodetypes="cssscc"
       inkscape:export-filename="/home/misha/Documents/favicon.png"
       inkscape:export-xdpi="1.6548408"
       inkscape:export-ydpi="1.6548408" />
    <path
       inkscape:export-ydpi="1.6548408"
       inkscape:export-xdpi="1.6548408"
       inkscape:export-filename="/home/misha/Documents/favicon.png"
       sodipodi:nodetypes="ssscs"
       inkscape:connector-curvature="0"
       id="path3126"
       d="m 132.66737,2966.153 c 0,-2.4122 2.7053,-5.1175 5.1181,-5.1175 2.4128,0 5.1181,2.7053 5.1181,5.1175 0,2.4128 -5.1181,5.1181 -5.1181,5.1181 0,0 -5.1181,-2.7053 -5.1181,-5.1181 z"
       style="fill:#aa9f89;fill-opacity:1;stroke:#000000;stroke-width:2.55891204;stroke-linecap:round;stroke-linejoin:miter;stroke-miterlimit:4;stroke-opacity:1;stroke-dasharray:none" />
    <path
       inkscape:export-ydpi="1.6548408"
       inkscape:export-xdpi="1.6548408"
       inkscape:export-filename="/home/misha/Documents/favicon.png"
       style="fill:#aa9f89;fill-opacity:1;stroke:#000000;stroke-width:3.19024873;stroke-linecap:round;stroke-linejoin:miter;stroke-miterlimit:4;stroke-opacity:1;stroke-dasharray:none"
       d="m 94.336371,2968.781 c 0,-3.0073 -3.373,-6.3804 -6.381,-6.3804 -3.0079,0 -6.3804,3.3731 -6.3804,6.3804 0,3.008 6.3804,6.381 6.3804,6.381 0,0 6.381,-3.373 6.381,-6.381 z"
       id="path3128"
       inkscape:connector-curvature="0"
       sodipodi:nodetypes="ssscs" />
    <path
       inkscape:export-ydpi="1.6548408"
       inkscape:export-xdpi="1.6548408"
       inkscape:export-filename="/home/misha/Documents/favicon.png"
       sodipodi:nodetypes="ssscs"
       inkscape:connector-curvature="0"
       id="path3130"
       d="m 80.692671,2967.5431 c 0,-3.0079 -3.373,-6.3804 -6.381,-6.3804 -3.0079,0 -6.380401,3.3725 -6.380401,6.3804 0,3.008 6.380401,6.381 6.380401,6.381 0,0 6.381,-3.373 6.381,-6.381 z"
       style="fill:#aa9f89;fill-opacity:1;stroke:#000000;stroke-width:3.19024873;stroke-linecap:round;stroke-linejoin:miter;stroke-miterlimit:4;stroke-opacity:1;stroke-dasharray:none" />
    <path
       style="fill:#aa9f89;fill-opacity:1;stroke:#000000;stroke-width:2.55891204;stroke-linecap:round;stroke-linejoin:miter;stroke-miterlimit:4;stroke-opacity:1;stroke-dasharray:none"
       d="m 67.77667,2964.8229 c 0,-2.4121 -2.7047,-5.1169 -5.1175,-5.1169 -2.4127,0 -5.1181,2.7048 -5.1181,5.1169 0,2.4128 5.1181,5.1181 5.1181,5.1181 0,0 5.1175,-2.7053 5.1175,-5.1181 z"
       id="path3132"
       inkscape:connector-curvature="0"
       sodipodi:nodetypes="ssscs"
       inkscape:export-filename="/home/misha/Documents/favicon.png"
       inkscape:export-xdpi="1.6548408"
       inkscape:export-ydpi="1.6548408" />
    <path
       style="fill:#aa9f89;fill-opacity:1;fill-rule:evenodd;stroke:none"
       d="m 99.726609,2806.4831 -84.722713,0 c 0,0 -1.868571,-39.4408 42.361357,-41.2085 42.302119,-1.6907 42.361356,41.2085 42.361356,41.2085 z"
       id="path3101"
       inkscape:connector-curvature="0"
       sodipodi:nodetypes="ccsc" />
    <path
       sodipodi:nodetypes="ccsc"
       inkscape:connector-curvature="0"
       id="path3105"
       d="m 186.93893,2806.4831 -83.29415,0 c 0,0 -1.89992,-41.157 42.7185,-42.1906 40.90424,-0.9476 40.57565,42.1906 40.57565,42.1906 z"
       style="fill:#aa9f89;fill-opacity:1;fill-rule:evenodd;stroke:none" />
  </g>
</svg>
